<svg xmlns="http://www.w3.org/2000/svg" width="135.054" height="130.744" viewBox="0 0 135.054 130.744">
  <g id="ic_upload_img" transform="translate(-141 -111)">
    <g id="Path_14915" data-name="Path 14915" transform="translate(141 111)" fill="#fff" opacity="0.26">
      <path d="M 69.68219757080078 130.243896484375 L 65.37194061279297 130.243896484375 C 56.61407089233398 130.243896484375 48.11841583251953 128.5287628173828 40.12101364135742 125.1461486816406 C 36.27717971801758 123.5203475952148 32.56977844238281 121.5080184936523 29.10177803039551 119.1650924682617 C 25.66657829284668 116.8443145751953 22.43626976013184 114.1790542602539 19.50054168701172 111.2433471679688 C 16.56483268737793 108.3076400756836 13.89957809448242 105.0773086547852 11.57881450653076 101.6421279907227 C 9.235869407653809 98.17411041259766 7.223541736602783 94.46671295166016 5.597741603851318 90.62289428710938 C 2.215123653411865 82.62547302246094 0.4999963641166687 74.12982177734375 0.4999963641166687 65.3719482421875 C 0.4999963641166687 56.61407470703125 2.215123653411865 48.1184196472168 5.597741603851318 40.12102127075195 C 7.223541736602783 36.27718353271484 9.235869407653809 32.56978607177734 11.57881450653076 29.10178375244141 C 13.89957809448242 25.66658401489258 16.56483268737793 22.43627548217773 19.50054168701172 19.50054740905762 C 22.43626976013184 16.56483840942383 25.66657829284668 13.89958477020264 29.10177803039551 11.57882118225098 C 32.56977844238281 9.235875129699707 36.27717971801758 7.223548412322998 40.12101364135742 5.597748279571533 C 48.11841583251953 2.215130090713501 56.61407089233398 0.5000028014183044 65.37194061279297 0.5000028014183044 L 69.68219757080078 0.5000028014183044 C 78.44007110595703 0.5000028014183044 86.93572235107422 2.215130090713501 94.93312072753906 5.597748279571533 C 98.77696228027344 7.223548412322998 102.4843597412109 9.235875129699707 105.9523620605469 11.57882118225098 C 109.3875579833984 13.89958477020264 112.6178665161133 16.56483840942383 115.553596496582 19.50054740905762 C 118.4893035888672 22.43627548217773 121.1545562744141 25.66658401489258 123.4753265380859 29.10178375244141 C 125.8182678222656 32.56978607177734 127.8305969238281 36.27718353271484 129.4563903808594 40.12102127075195 C 132.8390197753906 48.1184196472168 134.5541381835938 56.61407470703125 134.5541381835938 65.3719482421875 C 134.5541381835938 74.12982177734375 132.8390197753906 82.62547302246094 129.4563903808594 90.62289428710938 C 127.8305969238281 94.46671295166016 125.8182678222656 98.17411041259766 123.4753265380859 101.6421279907227 C 121.1545562744141 105.0773086547852 118.4893035888672 108.3076400756836 115.553596496582 111.2433471679688 C 112.6178665161133 114.1790542602539 109.3875579833984 116.8443145751953 105.9523620605469 119.1650924682617 C 102.4843597412109 121.5080184936523 98.77696228027344 123.5203475952148 94.93312072753906 125.1461486816406 C 86.93572235107422 128.5287628173828 78.44007110595703 130.243896484375 69.68219757080078 130.243896484375 Z" stroke="none"/>
      <path d="M 65.37194061279297 1 C 56.68134307861328 1 48.25123596191406 2.70184326171875 40.31578063964844 6.058258056640625 C 36.501708984375 7.671478271484375 32.82292175292969 9.668258666992188 29.38166809082031 11.99313354492188 C 25.97285461425781 14.29607391357422 22.76730346679688 16.94089508056641 19.85410308837891 19.85411071777344 C 16.94088745117188 22.76731109619141 14.29606628417969 25.97285461425781 11.99312591552734 29.38167572021484 C 9.668251037597656 32.82292938232422 7.671470642089844 36.501708984375 6.058258056640625 40.31578826904297 C 2.701828002929688 48.25123596191406 1 56.68135070800781 1 65.3719482421875 C 1 74.06254577636719 2.701828002929688 82.49266052246094 6.058258056640625 90.42811584472656 C 7.671470642089844 94.2421875 9.668251037597656 97.92096710205078 11.99312591552734 101.3622207641602 C 14.29606628417969 104.7710418701172 16.94088745117188 107.9765853881836 19.85410308837891 110.8897857666016 C 22.76730346679688 113.8030014038086 25.97285461425781 116.4478225708008 29.38166809082031 118.7507629394531 C 32.82292175292969 121.0756378173828 36.501708984375 123.0724182128906 40.31578063964844 124.6856384277344 C 48.25123596191406 128.0420532226562 56.68134307861328 129.743896484375 65.37194061279297 129.743896484375 L 69.68219757080078 129.743896484375 C 78.37279510498047 129.743896484375 86.80290222167969 128.0420532226562 94.73835754394531 124.6856384277344 C 98.55242919921875 123.0724182128906 102.2312164306641 121.0756378173828 105.6724700927734 118.7507629394531 C 109.0812835693359 116.4478225708008 112.2868347167969 113.8030014038086 115.2000350952148 110.8897857666016 C 118.1132507324219 107.9765853881836 120.7580718994141 104.7710418701172 123.0610122680664 101.3622207641602 C 125.3858871459961 97.92096710205078 127.3826675415039 94.2421875 128.9958801269531 90.42811584472656 C 132.3523101806641 82.49266052246094 134.0541381835938 74.06254577636719 134.0541381835938 65.3719482421875 C 134.0541381835938 56.68135070800781 132.3523101806641 48.25123596191406 128.9958801269531 40.31578826904297 C 127.3826675415039 36.501708984375 125.3858871459961 32.82292938232422 123.0610122680664 29.38167572021484 C 120.7580718994141 25.97285461425781 118.1132507324219 22.76731109619141 115.2000350952148 19.85411071777344 C 112.2868347167969 16.94089508056641 109.0812835693359 14.29607391357422 105.6724700927734 11.99313354492188 C 102.2312164306641 9.668258666992188 98.55242919921875 7.671478271484375 94.73835754394531 6.058258056640625 C 86.80290222167969 2.70184326171875 78.37279510498047 1 69.68219757080078 1 L 65.37194061279297 1 M 65.37194061279297 0 L 69.68219757080078 0 C 105.7861251831055 0 135.0541381835938 29.26802062988281 135.0541381835938 65.3719482421875 C 135.0541381835938 101.4758758544922 105.7861251831055 130.743896484375 69.68219757080078 130.743896484375 L 65.37194061279297 130.743896484375 C 29.26801300048828 130.743896484375 0 101.4758758544922 0 65.3719482421875 C 0 29.26802062988281 29.26801300048828 0 65.37194061279297 0 Z" stroke="none" fill="#747474"/>
    </g>
    <g id="ic_camera" transform="translate(187.652 158.182)">
      <path id="Path_14387" data-name="Path 14387" d="M192.031,199.955a5.195,5.195,0,1,1-7.347,0,5.195,5.195,0,0,1,7.347,0" transform="translate(-167.579 -184.147)" fill="#8bc53f"/>
      <path id="Path_14388" data-name="Path 14388" d="M36.363,35.717H32.774l-2.6-5.195H11.38l-2.6,5.2L5.2,35.726A5.2,5.2,0,0,0,.014,40.918L0,61.69a5.2,5.2,0,0,0,5.195,5.2H36.363a5.2,5.2,0,0,0,5.195-5.195V40.912A5.2,5.2,0,0,0,36.363,35.717ZM20.778,60.393A10.39,10.39,0,1,1,31.168,50a10.4,10.4,0,0,1-10.39,10.39Z" transform="translate(0 -30.522)" fill="#8bc53f"/>
    </g>
  </g>
</svg>
