<svg xmlns="http://www.w3.org/2000/svg" width="21" height="20" viewBox="0 0 21 20">
  <g id="ic_filter" transform="translate(-331.513 -49.617)">
    <path id="Shape" d="M3,21a.945.945,0,0,1-1-.875V8.75A1.89,1.89,0,0,1,0,7V5.25A1.89,1.89,0,0,1,2,3.5V.875A.945.945,0,0,1,3,0,.945.945,0,0,1,4,.875V3.5A1.89,1.89,0,0,1,6,5.25V7A1.89,1.89,0,0,1,4,8.75V20.125A.945.945,0,0,1,3,21ZM2,5.25V7H4V5.25Z" transform="translate(352.513 49.617) rotate(90)" fill="#139345"/>
    <path id="Shape-2" data-name="Shape" d="M3,21a.945.945,0,0,1-1-.875V17.5A1.89,1.89,0,0,1,0,15.75V14a1.89,1.89,0,0,1,2-1.75V.875A.945.945,0,0,1,3,0,.945.945,0,0,1,4,.875V12.25A1.89,1.89,0,0,1,6,14v1.75A1.889,1.889,0,0,1,4,17.5v2.625A.945.945,0,0,1,3,21ZM2,14v1.75H4V14Z" transform="translate(352.513 56.617) rotate(90)" fill="#139345"/>
    <path id="Shape-3" data-name="Shape" d="M3,21a.945.945,0,0,1-1-.875V12.25A1.89,1.89,0,0,1,0,10.5V8.75A1.89,1.89,0,0,1,2,7V.875A.945.945,0,0,1,3,0,.945.945,0,0,1,4,.875V7A1.89,1.89,0,0,1,6,8.75V10.5a1.89,1.89,0,0,1-2,1.75v7.875A.945.945,0,0,1,3,21ZM2,8.75V10.5H4V8.75Z" transform="translate(352.513 63.617) rotate(90)" fill="#139345"/>
  </g>
</svg>
