<svg xmlns="http://www.w3.org/2000/svg" width="20" height="20" viewBox="0 0 20 20">
  <path id="ic_home_active" d="M19.463,8.7h0L11.3.539a1.841,1.841,0,0,0-2.6,0L.543,8.693.535,8.7A1.84,1.84,0,0,0,1.76,11.838l.057,0h.325v6A2.157,2.157,0,0,0,4.3,20H7.489a.586.586,0,0,0,.586-.586V14.706a.984.984,0,0,1,.983-.983h1.883a.984.984,0,0,1,.983.983v4.707a.586.586,0,0,0,.586.586H15.7a2.157,2.157,0,0,0,2.155-2.155v-6h.3a1.841,1.841,0,0,0,1.3-3.142Zm0,0" transform="translate(0 0.001)" fill="#8bc53f"/>
</svg>
