<svg xmlns="http://www.w3.org/2000/svg" width="17" height="20" viewBox="0 0 17 20">
  <g id="ic_notification_inactive" transform="translate(-42.675)">
    <g id="Group_24598" data-name="Group 24598" transform="translate(42.675)">
      <g id="Group_24597" data-name="Group 24597">
        <path id="Path_15556" data-name="Path 15556" d="M59.615,16.819l-1.459-2.378a6.944,6.944,0,0,1-1.03-3.634V8.724a5.843,5.843,0,0,0-4.25-5.571V1.662a1.7,1.7,0,0,0-3.4,0V3.153a5.843,5.843,0,0,0-4.25,5.571v2.083A6.948,6.948,0,0,1,44.2,14.441l-1.459,2.378a.407.407,0,0,0-.005.419.426.426,0,0,0,.369.211H59.25a.428.428,0,0,0,.37-.21A.409.409,0,0,0,59.615,16.819Z" transform="translate(-42.675)" fill="#fff"/>
      </g>
    </g>
    <g id="Group_24600" data-name="Group 24600" transform="translate(48.497 18.299)">
      <g id="Group_24599" data-name="Group 24599">
        <path id="Path_15557" data-name="Path 15557" d="M188.815,469.333a2.959,2.959,0,0,0,5.357,0Z" transform="translate(-188.815 -469.333)" fill="#fff"/>
      </g>
    </g>
  </g>
</svg>
