<svg id="ic_profile_inactive" xmlns="http://www.w3.org/2000/svg" width="17" height="20" viewBox="0 0 17 20">
  <path id="Path_15558" data-name="Path 15558" d="M91.91,9.9a4.686,4.686,0,0,0,3.449-1.45,4.823,4.823,0,0,0,1.429-3.5,4.824,4.824,0,0,0-1.429-3.5,4.828,4.828,0,0,0-6.9,0,4.823,4.823,0,0,0-1.429,3.5,4.823,4.823,0,0,0,1.429,3.5A4.687,4.687,0,0,0,91.91,9.9Zm0,0" transform="translate(-83.54)" fill="#fff"/>
  <path id="Path_15559" data-name="Path 15559" d="M16.959,253.19a12.319,12.319,0,0,0-.165-1.3,10.3,10.3,0,0,0-.317-1.305,6.475,6.475,0,0,0-.532-1.217,4.59,4.59,0,0,0-.8-1.054,3.534,3.534,0,0,0-1.153-.73,3.955,3.955,0,0,0-1.472-.268,1.487,1.487,0,0,0-.8.341c-.239.157-.519.339-.831.54a4.742,4.742,0,0,1-1.075.478,4.142,4.142,0,0,1-2.63,0A4.731,4.731,0,0,1,6.11,248.2c-.309-.2-.589-.381-.832-.54a1.485,1.485,0,0,0-.8-.341,3.95,3.95,0,0,0-1.471.269,3.531,3.531,0,0,0-1.153.73,4.59,4.59,0,0,0-.8,1.054,6.487,6.487,0,0,0-.532,1.217,10.323,10.323,0,0,0-.317,1.305,12.275,12.275,0,0,0-.165,1.3c-.027.393-.041.8-.041,1.213a3.426,3.426,0,0,0,1,2.581,3.6,3.6,0,0,0,2.589.952h9.811a3.6,3.6,0,0,0,2.589-.952A3.425,3.425,0,0,0,17,254.4c0-.414-.014-.822-.041-1.214Zm0,0" transform="translate(0 -237.937)" fill="#fff"/>
</svg>
